<svg 
    xmlns="http://www.w3.org/2000/svg"
    viewBox="0 0 179 194"
    width="179px" 
    height="194px">
    <path fill-rule="evenodd"  stroke="rgb(203, 203, 203)" stroke-width="4px" stroke-linecap="butt" stroke-linejoin="miter" fill="none"
 d="M9.065,50.215 C9.065,50.215 10.699,44.476 19.229,39.553 C33.796,31.144 56.362,18.118 71.749,9.236 C81.589,3.555 88.494,4.365 88.494,4.365 C88.494,4.365 95.181,3.430 104.772,8.966 C120.208,17.877 143.167,31.129 157.878,39.621 C166.342,44.507 167.923,50.215 167.923,50.215 C167.923,50.215 172.076,54.640 172.076,64.657 C172.076,82.723 172.076,111.178 172.076,128.739 C172.076,138.060 167.923,141.914 167.923,141.914 C167.923,141.914 166.420,147.577 158.050,152.408 C143.131,161.020 119.590,174.609 104.095,183.553 C94.868,188.880 88.494,187.764 88.494,187.764 C88.494,187.764 82.161,188.904 72.983,183.605 C57.557,174.701 34.093,161.156 19.135,152.522 C10.657,147.628 9.065,141.914 9.065,141.914 C9.065,141.914 4.912,138.170 4.912,128.986 C4.912,111.446 4.912,82.808 4.912,64.657 C4.912,54.640 9.065,50.215 9.065,50.215 Z"/>
</svg>