<!-- <svg  
    viewBox="0 0 161 268"
    width="161px" 
    height="268px" 
    xmlns="http://www.w3.org/2000/svg">
    <path fill-rule="evenodd" stroke="rgb(203, 203, 203)" stroke-width="4px" stroke-dasharray="2, 8" stroke-linecap="round" stroke-linejoin="miter" fill="none"
d="M4.000,4.000 C4.000,4.000 4.000,16.387 4.000,43.929 C4.000,57.183 10.591,70.919 20.992,77.103 C49.583,94.103 109.961,130.220 138.333,147.090 C148.546,153.162 155.000,164.047 155.000,175.262 C155.000,218.972 155.000,266.000 155.000,266.000 "/>
</svg> -->

<svg 
 xmlns="http://www.w3.org/2000/svg"
 width="161px" 
 height="670px">
<path fill-rule="evenodd"  stroke="rgb(203, 203, 203)" stroke-width="4px" stroke-dasharray="2, 8" stroke-linecap="round" stroke-linejoin="miter" fill="none"
 d="M4.000,4.000 C4.000,4.000 4.000,216.387 4.000,243.929 C4.000,257.183 10.591,270.919 20.992,277.103 C49.583,294.103 109.961,330.220 138.333,347.090 C148.546,353.162 155.000,364.047 155.000,375.262 C155.000,418.972 155.000,666.000 155.000,666.000 "/>
</svg>